<svg width="49" height="48" viewBox="0 0 49 48" fill="none" xmlns="http://www.w3.org/2000/svg">
<g clip-path="url(#clip0_524_2589)">
<path d="M24.5 44C13.454 44 4.5 35.046 4.5 24C4.5 12.954 13.454 4 24.5 4C35.546 4 44.5 12.954 44.5 24C44.5 35.046 35.546 44 24.5 44ZM24.5 40C28.7435 40 32.8131 38.3143 35.8137 35.3137C38.8143 32.3131 40.5 28.2435 40.5 24C40.5 19.7565 38.8143 15.6869 35.8137 12.6863C32.8131 9.68571 28.7435 8 24.5 8C20.2565 8 16.1869 9.68571 13.1863 12.6863C10.1857 15.6869 8.5 19.7565 8.5 24C8.5 28.2435 10.1857 32.3131 13.1863 35.3137C16.1869 38.3143 20.2565 40 24.5 40ZM22.506 32L14.02 23.514L16.848 20.686L22.506 26.344L33.818 15.03L36.648 17.858L22.506 32Z" fill="#081840"/>
</g>
<defs>
<clipPath id="clip0_524_2589">
<rect width="48" height="48" fill="white" transform="translate(0.5)"/>
</clipPath>
</defs>
</svg>
