<svg width="24" height="24" viewBox="0 0 24 24" fill="none" xmlns="http://www.w3.org/2000/svg">
<g clip-path="url(#clip0_206_6084)">
<path d="M12.0002 10.5857L16.2432 6.34274C16.6337 5.95228 17.2668 5.95228 17.6572 6.34274C18.0477 6.73321 18.0477 7.36628 17.6572 7.75674L13.4142 11.9997L17.6572 16.2427C18.0477 16.6332 18.0477 17.2663 17.6572 17.6567C17.2668 18.0472 16.6337 18.0472 16.2432 17.6567L12.0002 13.4137L7.75723 17.6567C7.36677 18.0472 6.7337 18.0472 6.34323 17.6567C5.95277 17.2663 5.95277 16.6332 6.34323 16.2427L10.5862 11.9997L6.34323 7.75674C5.95277 7.36628 5.95277 6.73321 6.34323 6.34274C6.7337 5.95228 7.36677 5.95228 7.75723 6.34274L12.0002 10.5857Z" fill="#A0A7BA"/>
</g>
<defs>
<clipPath id="clip0_206_6084">
<rect width="24" height="24" fill="white"/>
</clipPath>
</defs>
</svg>
