<svg width="22" height="13" viewBox="0 0 22 13" fill="none" xmlns="http://www.w3.org/2000/svg">
<path d="M8.60066 11.8161C8.4577 12.3495 7.90934 12.666 7.37596 12.5229C6.84284 12.3799 6.52649 11.8319 6.66927 11.2987L7.19778 9.32499C6.01975 8.89051 4.9249 8.25735 3.96078 7.45299L2.51512 8.89932C2.12449 9.29013 1.491 9.2902 1.10028 8.89949C0.709567 8.50877 0.70964 7.87527 1.10045 7.48465L2.54678 6.03898C1.5448 4.83897 0.813715 3.44151 0.398281 1.94229C0.250932 1.41054 0.615471 0.888778 1.1583 0.789755C1.70229 0.690521 2.21816 1.05433 2.37669 1.58408C3.48717 5.29496 6.92741 7.99999 10.9998 7.99999C15.0714 7.99999 18.5125 5.29474 19.623 1.58364C19.7815 1.05405 20.297 0.690254 20.8409 0.789189C21.3839 0.887965 21.7487 1.40972 21.6015 1.94161C21.1864 3.441 20.4556 4.83869 19.4538 6.03898L20.8994 7.48457C21.2901 7.87526 21.2901 8.50871 20.8994 8.8994C20.5086 9.29016 19.875 9.29009 19.4844 8.89924L18.0388 7.45299C17.0747 8.25735 15.9798 8.89051 14.8018 9.32499L15.3303 11.2994C15.4731 11.8327 15.1565 12.3807 14.6232 12.5235C14.09 12.6663 13.542 12.3498 13.399 11.8167L12.8698 9.84199C11.6321 10.0541 10.3674 10.0541 9.12978 9.84199L8.60066 11.8161Z" fill="#09121F"/>
</svg>
