<svg width="28" height="32" viewBox="0 0 28 32" fill="none" xmlns="http://www.w3.org/2000/svg">
<path d="M24.5998 7.38137L19.9518 2.73337C19.0873 1.86414 18.0589 1.175 16.9263 0.705824C15.7936 0.23665 14.5791 -0.00324075 13.3532 3.30615e-05H7.33317C5.56571 0.0021502 3.87125 0.705209 2.62146 1.95499C1.37168 3.20478 0.668621 4.89924 0.666504 6.6667V25.3334C0.668621 27.1008 1.37168 28.7953 2.62146 30.0451C3.87125 31.2949 5.56571 31.9979 7.33317 32H20.6665C22.434 31.9979 24.1284 31.2949 25.3782 30.0451C26.628 28.7953 27.3311 27.1008 27.3332 25.3334V13.98C27.3364 12.7541 27.0966 11.5396 26.6274 10.4069C26.1582 9.27429 25.4691 8.24593 24.5998 7.38137ZM22.7145 9.2667C23.1212 9.68591 23.4713 10.1566 23.7558 10.6667H17.9998C17.6462 10.6667 17.3071 10.5262 17.057 10.2762C16.807 10.0261 16.6665 9.68699 16.6665 9.33337V3.57737C17.1766 3.86188 17.6473 4.21197 18.0665 4.6187L22.7145 9.2667ZM24.6665 25.3334C24.6665 26.3942 24.2451 27.4116 23.4949 28.1618C22.7448 28.9119 21.7274 29.3334 20.6665 29.3334H7.33317C6.27231 29.3334 5.25489 28.9119 4.50474 28.1618C3.7546 27.4116 3.33317 26.3942 3.33317 25.3334V6.6667C3.33317 5.60583 3.7546 4.58842 4.50474 3.83827C5.25489 3.08813 6.27231 2.6667 7.33317 2.6667H13.3532C13.5732 2.6667 13.7838 2.70937 13.9998 2.72937V9.33337C13.9998 10.3942 14.4213 11.4116 15.1714 12.1618C15.9216 12.9119 16.939 13.3334 17.9998 13.3334H24.6038C24.6238 13.5494 24.6665 13.76 24.6665 13.98V25.3334ZM20.2985 17.748C20.542 18.0041 20.6738 18.3464 20.6651 18.6997C20.6563 19.0529 20.5077 19.3883 20.2518 19.632L15.4665 24.184C14.7143 24.9244 13.6999 25.3375 12.6445 25.3332C11.5891 25.329 10.5781 24.9078 9.83184 24.1614L7.7785 22.3294C7.51435 22.0939 7.35457 21.7631 7.33432 21.4097C7.32429 21.2348 7.34881 21.0596 7.4065 20.8941C7.46418 20.7286 7.55389 20.5762 7.6705 20.4454C7.78712 20.3146 7.92835 20.208 8.08614 20.1318C8.24393 20.0556 8.41519 20.0112 8.59014 20.0012C8.94345 19.9809 9.29035 20.1019 9.5545 20.3374L11.6678 22.2227C11.7888 22.3586 11.9363 22.4682 12.1013 22.545C12.2662 22.6217 12.4451 22.6638 12.627 22.6688C12.8088 22.6738 12.9898 22.6416 13.1587 22.574C13.3276 22.5065 13.4809 22.405 13.6092 22.276L18.4092 17.7014C18.5361 17.58 18.6857 17.4849 18.8495 17.4216C19.0133 17.3582 19.188 17.3278 19.3635 17.3321C19.5391 17.3365 19.7121 17.3755 19.8725 17.4468C20.033 17.5182 20.1777 17.6206 20.2985 17.748Z" fill="#070707"/>
</svg>
