<svg width="1440" height="999" viewBox="0 0 1440 999" stroke="#F9F9FB" fill="none" xmlns="http://www.w3.org/2000/svg">
<path d="M2028.91 998.59C2028.91 998.59 1754.24 -87.0642 714.556 495.882C-325.132 1078.83 -730.385 663.506 -730.385 663.506" stroke="#F9F9FB" opacity="0.3" stroke-miterlimit="10"/>
<path d="M2091.93 992.254C2091.93 992.254 1691.87 -107.694 742.654 491.983C-204.776 1090.52 -731.199 637.029 -731.199 637.029" stroke="#F9F9FB" opacity="0.3" stroke-miterlimit="10"/>
<path d="M2154.79 985.758C2154.79 985.758 1630.15 -129.296 770.755 487.922C-83.6057 1101.4 -731.847 610.391 -731.847 610.391" stroke="#F9F9FB" opacity="0.3" stroke-miterlimit="10"/>
<path d="M2217.64 979.422C2217.64 979.422 1569.56 -151.874 798.69 484.023C38.3741 1111.31 -732.662 583.915 -732.662 583.915" stroke="#F9F9FB" opacity="0.3" stroke-miterlimit="10"/>
<path d="M2280.67 973.09C2280.67 973.09 1510.12 -176.073 826.792 480.127C161.008 1119.6 -733.471 557.442 -733.471 557.442" stroke="#F9F9FB" opacity="0.3" stroke-miterlimit="10"/>
<path d="M2343.52 966.754C2343.52 966.754 1451.32 -202.387 854.891 476.228C283.802 1125.93 -734.122 530.965 -734.122 530.965" stroke="#F9F9FB" opacity="0.3" stroke-miterlimit="10"/>
<path d="M2406.55 960.42C2406.55 960.42 1392.85 -230.974 882.991 472.493C406.595 1129.99 -734.771 504.653 -734.771 504.653" stroke="#F9F9FB" opacity="0.3" stroke-miterlimit="10"/>
<path d="M2469.4 954.085C2469.4 954.085 1333.56 -262.485 911.09 468.594C528.252 1131.13 -735.422 478.176 -735.422 478.176" stroke="#F9F9FB" opacity="0.3" stroke-miterlimit="10"/>
<path d="M2532.26 947.589C2532.26 947.589 1272.65 -296.919 939.027 464.534C647.635 1129.67 -736.396 451.54 -736.396 451.54" stroke="#F9F9FB" opacity="0.3" stroke-miterlimit="10"/>
<path d="M2595.28 941.254C2595.28 941.254 1208.82 -333.302 967.29 460.636C764.745 1126.09 -736.883 425.064 -736.883 425.064" stroke="#F9F9FB" opacity="0.3" stroke-miterlimit="10"/>
<path d="M2658.14 934.921C2658.14 934.921 1141.09 -370.983 995.227 456.739C878.118 1121.71 -737.695 398.59 -737.695 398.59" stroke="#F9F9FB" opacity="0.3" stroke-miterlimit="10"/>
<path d="M2721.16 928.584C2721.16 928.584 1068.81 -408.343 1023.49 452.839C988.405 1117.49 -738.508 372.275 -738.508 372.275" stroke="#F9F9FB" opacity="0.3" stroke-miterlimit="10"/>
<path d="M2784.02 922.251C2784.02 922.251 992.141 -443.914 1051.43 449.104C1095.61 1114.89 -739.157 345.801 -739.157 345.801" stroke="#F9F9FB" opacity="0.3" stroke-miterlimit="10"/>
<path d="M2846.88 915.915C2846.88 915.915 912.065 -476.725 1079.53 445.204C1201.02 1114.56 -739.806 319.324 -739.806 319.324" stroke="#F9F9FB" opacity="0.3" stroke-miterlimit="10"/>
<path d="M2909.9 909.581C2909.9 909.581 830.202 -506.123 1107.63 441.307C1305.46 1116.84 -740.619 292.849 -740.619 292.849" stroke="#F9F9FB" opacity="0.3" stroke-miterlimit="10"/>
<path d="M2972.76 903.082C2972.76 903.082 747.364 -532.438 1135.56 437.244C1409.74 1121.71 -741.27 266.372 -741.27 266.372" stroke="#F9F9FB" opacity="0.3" stroke-miterlimit="10"/>
<path d="M3035.62 896.748C3035.62 896.748 664.69 -555.827 1163.66 433.347C1514.5 1128.85 -742.081 239.897 -742.081 239.897" stroke="#F9F9FB" opacity="0.3" stroke-miterlimit="10"/>
<path d="M2986.89 900.81C2986.89 900.81 658.68 -553.227 1163.34 432.699C1514.83 1120.73 -765.47 205.952 -765.47 205.952" stroke="#F9F9FB" opacity="0.3" stroke-miterlimit="10"/>
<path d="M2938 904.707C2938 904.707 652.67 -550.954 1162.85 431.885C1515.15 1112.61 -788.86 172.166 -788.86 172.166" stroke="#F9F9FB" opacity="0.3" stroke-miterlimit="10"/>
<path d="M2889.27 908.606C2889.27 908.606 646.661 -548.516 1162.36 431.074C1515.31 1104.49 -812.249 138.22 -812.249 138.22" stroke="#F9F9FB" opacity="0.3" stroke-miterlimit="10"/>
<path d="M2840.38 912.504C2840.38 912.504 640.488 -546.244 1161.88 430.261C1515.48 1096.21 -835.801 104.272 -835.801 104.272" stroke="#F9F9FB" opacity="0.3" stroke-miterlimit="10"/>
<path d="M2791.66 916.566C2791.66 916.566 634.478 -543.643 1161.55 429.613C1515.96 1088.25 -859.028 70.6514 -859.028 70.6514" stroke="#F9F9FB" opacity="0.3" stroke-miterlimit="10"/>
<path d="M2742.77 920.463C2742.77 920.463 628.469 -541.37 1161.06 428.799C1516.29 1079.96 -882.417 36.7031 -882.417 36.7031" stroke="#F9F9FB" opacity="0.3" stroke-miterlimit="10"/>
<path d="M2694.04 924.361C2694.04 924.361 622.46 -538.934 1160.74 427.987C1516.45 1071.84 -905.806 2.75615 -905.806 2.75615" stroke="#F9F9FB" opacity="0.3" stroke-miterlimit="10"/>
<path d="M2645.15 928.261C2645.15 928.261 616.288 -536.659 1160.25 427.177C1516.78 1063.72 -929.194 -31.0268 -929.194 -31.0268" stroke="#F9F9FB" opacity="0.3" stroke-miterlimit="10"/>
<path d="M2596.42 932.318C2596.42 932.318 610.277 -534.063 1159.76 426.524C1517.1 1055.6 -952.586 -64.9774 -952.586 -64.9774" stroke="#F9F9FB" opacity="0.3" stroke-miterlimit="10"/>
<path d="M2547.53 936.22C2547.53 936.22 604.106 -531.785 1159.28 425.715C1517.43 1047.48 -975.974 -98.758 -975.974 -98.758" stroke="#F9F9FB" opacity="0.3" stroke-miterlimit="10"/>
<path d="M2498.8 940.116C2498.8 940.116 598.258 -529.351 1158.95 424.901C1517.75 1039.2 -999.363 -132.707 -999.363 -132.707" stroke="#F9F9FB" opacity="0.3" stroke-miterlimit="10"/>
<path d="M2449.91 944.177C2449.91 944.177 592.085 -526.914 1158.46 424.252C1517.91 1031.07 -1022.75 -166.492 -1022.75 -166.492" stroke="#F9F9FB" opacity="0.3" stroke-miterlimit="10"/>
<path d="M2401.19 948.075C2401.19 948.075 586.076 -524.478 1158.14 423.439C1518.24 1022.95 -1046.14 -200.439 -1046.14 -200.439" stroke="#F9F9FB" opacity="0.3" stroke-miterlimit="10"/>
<path d="M2352.29 951.973C2352.29 951.973 579.904 -522.205 1157.65 422.627C1518.56 1014.83 -1069.53 -234.224 -1069.53 -234.224" stroke="#F9F9FB" opacity="0.3" stroke-miterlimit="10"/>
<path d="M2303.57 955.871C2303.57 955.871 573.894 -519.768 1157.17 421.815C1518.89 1006.71 -1092.92 -268.17 -1092.92 -268.17" stroke="#F9F9FB" opacity="0.3" stroke-miterlimit="10"/>
<path d="M2254.68 959.932C2254.68 959.932 567.883 -517.331 1156.68 421.166C1519.21 998.59 -1116.31 -302.117 -1116.31 -302.117" stroke="#F9F9FB" opacity="0.3" stroke-miterlimit="10"/>
<defs>
<linearGradient id="paint0_linear_68_647" x1="2029.75" y1="660.868" x2="-731.011" y2="660.868" gradientUnits="userSpaceOnUse">
<stop stop-color="#2D2E83"/>
<stop offset="1" stop-color="#56BFCC"/>
</linearGradient>
<linearGradient id="paint1_linear_68_647" x1="2092.64" y1="652.317" x2="-731.689" y2="652.317" gradientUnits="userSpaceOnUse">
<stop stop-color="#2C3286"/>
<stop offset="1" stop-color="#59C2CE"/>
</linearGradient>
<linearGradient id="paint2_linear_68_647" x1="2155.54" y1="643.576" x2="-732.375" y2="643.576" gradientUnits="userSpaceOnUse">
<stop stop-color="#2B368A"/>
<stop offset="1" stop-color="#5BC5D1"/>
</linearGradient>
<linearGradient id="paint3_linear_68_647" x1="2218.42" y1="634.574" x2="-733.072" y2="634.573" gradientUnits="userSpaceOnUse">
<stop stop-color="#2A3B8D"/>
<stop offset="1" stop-color="#5EC9D3"/>
</linearGradient>
<linearGradient id="paint4_linear_68_647" x1="2281.32" y1="625.23" x2="-733.77" y2="625.23" gradientUnits="userSpaceOnUse">
<stop stop-color="#293F90"/>
<stop offset="1" stop-color="#61CCD6"/>
</linearGradient>
<linearGradient id="paint5_linear_68_647" x1="2344.21" y1="615.444" x2="-734.475" y2="615.444" gradientUnits="userSpaceOnUse">
<stop stop-color="#284394"/>
<stop offset="1" stop-color="#63CFD8"/>
</linearGradient>
<linearGradient id="paint6_linear_68_647" x1="2407.1" y1="605.126" x2="-735.183" y2="605.126" gradientUnits="userSpaceOnUse">
<stop stop-color="#274797"/>
<stop offset="1" stop-color="#66D2DA"/>
</linearGradient>
<linearGradient id="paint7_linear_68_647" x1="2470" y1="594.208" x2="-735.893" y2="594.208" gradientUnits="userSpaceOnUse">
<stop stop-color="#264B9A"/>
<stop offset="1" stop-color="#68D5DD"/>
</linearGradient>
<linearGradient id="paint8_linear_68_647" x1="2532.9" y1="582.691" x2="-736.604" y2="582.691" gradientUnits="userSpaceOnUse">
<stop stop-color="#25509E"/>
<stop offset="1" stop-color="#6BD9DF"/>
</linearGradient>
<linearGradient id="paint9_linear_68_647" x1="2595.8" y1="570.672" x2="-737.317" y2="570.672" gradientUnits="userSpaceOnUse">
<stop stop-color="#2454A1"/>
<stop offset="1" stop-color="#6EDCE1"/>
</linearGradient>
<linearGradient id="paint10_linear_68_647" x1="2658.7" y1="558.369" x2="-738.032" y2="558.368" gradientUnits="userSpaceOnUse">
<stop stop-color="#2358A4"/>
<stop offset="1" stop-color="#70DFE4"/>
</linearGradient>
<linearGradient id="paint11_linear_68_647" x1="2721.6" y1="546.077" x2="-738.75" y2="546.077" gradientUnits="userSpaceOnUse">
<stop stop-color="#225CA7"/>
<stop offset="1" stop-color="#73E2E6"/>
</linearGradient>
<linearGradient id="paint12_linear_68_647" x1="2784.5" y1="534.12" x2="-739.469" y2="534.119" gradientUnits="userSpaceOnUse">
<stop stop-color="#2160AB"/>
<stop offset="1" stop-color="#76E5E9"/>
</linearGradient>
<linearGradient id="paint13_linear_68_647" x1="2847.4" y1="522.732" x2="-740.189" y2="522.732" gradientUnits="userSpaceOnUse">
<stop stop-color="#2064AE"/>
<stop offset="1" stop-color="#78E8EB"/>
</linearGradient>
<linearGradient id="paint14_linear_68_647" x1="2910.31" y1="512.032" x2="-740.912" y2="512.031" gradientUnits="userSpaceOnUse">
<stop stop-color="#1F69B1"/>
<stop offset="1" stop-color="#7BECED"/>
</linearGradient>
<linearGradient id="paint15_linear_68_647" x1="2973.21" y1="502.002" x2="-741.637" y2="502.002" gradientUnits="userSpaceOnUse">
<stop stop-color="#1E6DB5"/>
<stop offset="1" stop-color="#7DEFF0"/>
</linearGradient>
<linearGradient id="paint16_linear_68_647" x1="3036.12" y1="492.552" x2="-742.36" y2="492.551" gradientUnits="userSpaceOnUse">
<stop stop-color="#1D71B8"/>
<stop offset="1" stop-color="#80F2F2"/>
</linearGradient>
<linearGradient id="paint17_linear_68_647" x1="2989.04" y1="499.115" x2="-766.888" y2="482.363" gradientUnits="userSpaceOnUse">
<stop stop-color="#2B7ABC"/>
<stop offset="0.0237361" stop-color="#2077B8"/>
<stop offset="1" stop-color="#80F2F2"/>
</linearGradient>
<linearGradient id="paint18_linear_68_647" x1="2942.09" y1="505.46" x2="-791.868" y2="472.148" gradientUnits="userSpaceOnUse">
<stop stop-color="#3983C1"/>
<stop offset="0.0237361" stop-color="#207AB8"/>
<stop offset="1" stop-color="#80F2F2"/>
</linearGradient>
<linearGradient id="paint19_linear_68_647" x1="2894.98" y1="511.715" x2="-816.82" y2="462.034" gradientUnits="userSpaceOnUse">
<stop stop-color="#478CC5"/>
<stop offset="0.0237361" stop-color="#217EB7"/>
<stop offset="1" stop-color="#80F2F2"/>
</linearGradient>
<linearGradient id="paint20_linear_68_647" x1="2847.98" y1="517.752" x2="-842.221" y2="451.889" gradientUnits="userSpaceOnUse">
<stop stop-color="#5694CA"/>
<stop offset="0.0237361" stop-color="#2281B6"/>
<stop offset="1" stop-color="#80F2F2"/>
</linearGradient>
<linearGradient id="paint21_linear_68_647" x1="2800.84" y1="523.7" x2="-867.602" y2="441.84" gradientUnits="userSpaceOnUse">
<stop stop-color="#649DCE"/>
<stop offset="0.0237361" stop-color="#2284B6"/>
<stop offset="1" stop-color="#80F2F2"/>
</linearGradient>
<linearGradient id="paint22_linear_68_647" x1="2753.74" y1="527.379" x2="-893.141" y2="429.705" gradientUnits="userSpaceOnUse">
<stop stop-color="#72A6D3"/>
<stop offset="0.0237361" stop-color="#2387B5"/>
<stop offset="1" stop-color="#80F2F2"/>
</linearGradient>
<linearGradient id="paint23_linear_68_647" x1="2707.12" y1="520.196" x2="-918.771" y2="406.888" gradientUnits="userSpaceOnUse">
<stop stop-color="#80AFD7"/>
<stop offset="0.0237361" stop-color="#238AB4"/>
<stop offset="1" stop-color="#80F2F2"/>
</linearGradient>
<linearGradient id="paint24_linear_68_647" x1="2660.46" y1="512.988" x2="-944.276" y2="384.223" gradientUnits="userSpaceOnUse">
<stop stop-color="#8EB8DC"/>
<stop offset="0.0237361" stop-color="#248EB3"/>
<stop offset="1" stop-color="#80F2F2"/>
</linearGradient>
<linearGradient id="paint25_linear_68_647" x1="2614.05" y1="505.624" x2="-970.112" y2="361.576" gradientUnits="userSpaceOnUse">
<stop stop-color="#9CC1E0"/>
<stop offset="0.0237361" stop-color="#2591B3"/>
<stop offset="1" stop-color="#80F2F2"/>
</linearGradient>
<linearGradient id="paint26_linear_68_647" x1="2567.6" y1="498.245" x2="-995.828" y2="339.086" gradientUnits="userSpaceOnUse">
<stop stop-color="#AACAE4"/>
<stop offset="0.0237361" stop-color="#2594B2"/>
<stop offset="1" stop-color="#80F2F2"/>
</linearGradient>
<linearGradient id="paint27_linear_68_647" x1="2521.26" y1="490.777" x2="-1021.65" y2="316.675" gradientUnits="userSpaceOnUse">
<stop stop-color="#B8D3E9"/>
<stop offset="0.0237361" stop-color="#2697B1"/>
<stop offset="1" stop-color="#80F2F2"/>
</linearGradient>
<linearGradient id="paint28_linear_68_647" x1="2475.16" y1="483.163" x2="-1047.8" y2="294.284" gradientUnits="userSpaceOnUse">
<stop stop-color="#C7DCED"/>
<stop offset="0.0237361" stop-color="#279AB1"/>
<stop offset="1" stop-color="#80F2F2"/>
</linearGradient>
<linearGradient id="paint29_linear_68_647" x1="2429.04" y1="475.533" x2="-1073.84" y2="272.039" gradientUnits="userSpaceOnUse">
<stop stop-color="#D5E4F2"/>
<stop offset="0.0237361" stop-color="#279DB0"/>
<stop offset="1" stop-color="#80F2F2"/>
</linearGradient>
<linearGradient id="paint30_linear_68_647" x1="2383.16" y1="467.755" x2="-1100.21" y2="249.807" gradientUnits="userSpaceOnUse">
<stop stop-color="#E3EDF6"/>
<stop offset="0.0237361" stop-color="#28A1AF"/>
<stop offset="1" stop-color="#80F2F2"/>
</linearGradient>
<linearGradient id="paint31_linear_68_647" x1="2337.26" y1="459.968" x2="-1126.47" y2="227.722" gradientUnits="userSpaceOnUse">
<stop stop-color="#F1F6FB"/>
<stop offset="0.0237361" stop-color="#28A4AF"/>
<stop offset="1" stop-color="#80F2F2"/>
</linearGradient>
<linearGradient id="paint32_linear_68_647" x1="2291.61" y1="452.034" x2="-1153.06" y2="205.644" gradientUnits="userSpaceOnUse">
<stop stop-color="white"/>
<stop offset="0.0237361" stop-color="#29A7AE"/>
<stop offset="1" stop-color="#80F2F2"/>
</linearGradient>
</defs>
</svg>
