<svg width="73" height="54" viewBox="0 0 73 54" fill="none" xmlns="http://www.w3.org/2000/svg">
<path d="M59.117 26.9955C58.9235 26.9955 58.7345 26.9955 58.55 27C58.847 25.5195 59 24.0075 59 22.5C59 10.0935 48.9065 0 36.5 0C24.1025 0 14 9.9945 13.9865 22.2705L14.0225 22.725C6.314 23.8275 0.5 30.501 0.5 38.25C0.5 46.107 6.161 52.866 14 54H25.25C25.8467 54 26.419 53.7629 26.841 53.341C27.2629 52.919 27.5 52.3467 27.5 51.75C27.5 51.1533 27.2629 50.581 26.841 50.159C26.419 49.7371 25.8467 49.5 25.25 49.5L14.3285 49.5225C9.0995 48.753 5 43.7985 5 38.25C5 32.724 9.149 27.9675 14.657 27.18L16.592 26.901C17.1279 26.8241 17.6182 26.5566 17.9728 26.1474C18.3274 25.7382 18.5226 25.2149 18.5225 24.6735L18.4865 22.2795C18.5 12.474 26.5775 4.5 36.5 4.5C46.427 4.5 54.5 12.573 54.5 22.5C54.5 23.7195 54.3785 24.948 54.131 26.1405L53.537 29.0025C53.3885 29.718 53.6 30.456 54.095 30.9915C54.59 31.5225 55.301 31.797 56.039 31.6845C56.0885 31.68 57.497 31.4955 59.117 31.4955C64.0175 31.4955 68 35.532 68 40.5C68 45.4635 63.9635 49.5 59 49.5H43.25C36.95 49.5 36.5225 45.7245 36.5 45V30.069L41.8235 35.388C42.2479 35.7979 42.8162 36.0246 43.4062 36.0195C43.9961 36.0144 44.5604 35.7778 44.9776 35.3606C45.3948 34.9434 45.6314 34.3791 45.6365 33.7892C45.6416 33.1992 45.4149 32.6309 45.005 32.2065L35.951 23.157C35.7404 22.9473 35.4905 22.7813 35.2156 22.6686C34.9407 22.5558 34.6461 22.4985 34.349 22.5C34.313 22.5 34.286 22.482 34.25 22.482C33.9438 22.4825 33.641 22.5464 33.3607 22.6695C33.0804 22.7926 32.8285 22.9724 32.621 23.1975L23.558 32.2515C23.1481 32.6759 22.9214 33.2442 22.9265 33.8342C22.9316 34.4241 23.1682 34.9884 23.5854 35.4056C24.0026 35.8228 24.5669 36.0594 25.1568 36.0645C25.7468 36.0696 26.3151 35.8429 26.7395 35.433L32 30.177V45C32 48.1095 34.349 54 43.25 54H59C66.443 54 72.5 47.943 72.5 40.5C72.5 33.057 66.497 26.9955 59.117 26.9955Z" fill="#070707"/>
</svg>
