<svg width="100" height="100" viewBox="0 0 100 100" fill="none" xmlns="http://www.w3.org/2000/svg">
<path d="M100 50C100 77.6142 77.6142 100 50 100C22.3858 100 0 77.6142 0 50C0 22.3858 22.3858 0 50 0C77.6142 0 100 22.3858 100 50ZM12 50C12 70.9868 29.0132 88 50 88C70.9868 88 88 70.9868 88 50C88 29.0132 70.9868 12 50 12C29.0132 12 12 29.0132 12 50Z" fill="url(#paint0_angular_315_2200)"/>
<circle cx="50" cy="94" r="6" fill="#4580F4"/>
<defs>
<radialGradient id="paint0_angular_315_2200" cx="0" cy="0" r="1" gradientUnits="userSpaceOnUse" gradientTransform="translate(50 50) rotate(90) scale(50)">
<stop stop-color="#3F7CF3"/>
<stop offset="1" stop-color="#3F7CF3" stop-opacity="0"/>
</radialGradient>
</defs>
</svg>
