<svg width="24" height="24" viewBox="0 0 60 60" fill="none" xmlns="http://www.w3.org/2000/svg">
<path d="M45 20H50C50.663 20 51.2989 20.2634 51.7678 20.7322C52.2366 21.2011 52.5 21.837 52.5 22.5V52.5C52.5 53.163 52.2366 53.7989 51.7678 54.2678C51.2989 54.7366 50.663 55 50 55H10C9.33696 55 8.70107 54.7366 8.23223 54.2678C7.76339 53.7989 7.5 53.163 7.5 52.5V22.5C7.5 21.837 7.76339 21.2011 8.23223 20.7322C8.70107 20.2634 9.33696 20 10 20H15V17.5C15 13.5218 16.5804 9.70644 19.3934 6.8934C22.2064 4.08035 26.0218 2.5 30 2.5C33.9782 2.5 37.7936 4.08035 40.6066 6.8934C43.4197 9.70644 45 13.5218 45 17.5V20ZM27.5 39.33V45H32.5V39.33C33.4532 38.7797 34.1982 37.9302 34.6194 36.9133C35.0406 35.8964 35.1145 34.7689 34.8296 33.7058C34.5448 32.6426 33.917 31.7032 33.0438 31.0331C32.1706 30.3631 31.1007 29.9999 30 29.9999C28.8993 29.9999 27.8294 30.3631 26.9562 31.0331C26.083 31.7032 25.4552 32.6426 25.1704 33.7058C24.8855 34.7689 24.9594 35.8964 25.3806 36.9133C25.8018 37.9302 26.5468 38.7797 27.5 39.33ZM40 20V17.5C40 14.8478 38.9464 12.3043 37.0711 10.4289C35.1957 8.55357 32.6522 7.5 30 7.5C27.3478 7.5 24.8043 8.55357 22.9289 10.4289C21.0536 12.3043 20 14.8478 20 17.5V20H40Z" fill="#3F7CF3"/>
</svg>
