<svg width="14" height="14" viewBox="0 0 14 14" fill="none" xmlns="http://www.w3.org/2000/svg">
<path d="M6.58634 0.346008C6.0951 0.803755 5.70108 1.35576 5.4278 1.96909C5.15452 2.58242 5.00758 3.24451 4.99573 3.91586C4.98389 4.58721 5.10738 5.25407 5.35886 5.87666C5.61033 6.49925 5.98463 7.06481 6.45942 7.5396C6.93421 8.01439 7.49977 8.38869 8.12236 8.64016C8.74494 8.89163 9.41181 9.01513 10.0832 9.00329C10.7545 8.99144 11.4166 8.84449 12.0299 8.57121C12.6433 8.29794 13.1953 7.90392 13.653 7.41268C13.441 10.9027 10.5437 13.6667 7.00034 13.6667C3.31767 13.6667 0.333008 10.682 0.333008 7.00001C0.333008 3.45668 3.09701 0.559342 6.58634 0.346008Z" fill="#3F7CF3"/>
</svg>
