<svg width="16" height="16" viewBox="0 0 16 16" fill="none" xmlns="http://www.w3.org/2000/svg">
<g clip-path="url(#clip0_28_156)">
<path d="M7.58634 1.34601C7.0951 1.80376 6.70108 2.35576 6.4278 2.96909C6.15452 3.58242 6.00758 4.24451 5.99573 4.91586C5.98389 5.58721 6.10738 6.25407 6.35886 6.87666C6.61033 7.49925 6.98463 8.06481 7.45942 8.5396C7.93421 9.01439 8.49977 9.38869 9.12236 9.64016C9.74495 9.89163 10.4118 10.0151 11.0832 10.0033C11.7545 9.99144 12.4166 9.84449 13.0299 9.57121C13.6433 9.29794 14.1953 8.90392 14.653 8.41268C14.441 11.9027 11.5437 14.6667 8.00034 14.6667C4.31767 14.6667 1.33301 11.682 1.33301 8.00001C1.33301 4.45667 4.09701 1.55934 7.58634 1.34601Z" fill="#3F7CF3"/>
</g>
<defs>
<clipPath id="clip0_28_156">
<rect width="16" height="16" fill="white"/>
</clipPath>
</defs>
</svg>
