<?xml version="1.0" standalone="no"?>
<!DOCTYPE svg PUBLIC "-//W3C//DTD SVG 20010904//EN"
 "http://www.w3.org/TR/2001/REC-SVG-20010904/DTD/svg10.dtd">
<svg version="1.0" xmlns="http://www.w3.org/2000/svg"
 width="700.000000pt" height="700.000000pt" viewBox="0 0 700.000000 700.000000"
 preserveAspectRatio="xMidYMid meet">
<metadata>
Created by potrace 1.14, written by Peter Selinger 2001-2017
</metadata>
<g transform="translate(0.000000,700.000000) scale(0.100000,-0.100000)"
fill="#000000" stroke="none">
<path d="M3368 6705 c-2 -1 -32 -6 -66 -9 -380 -40 -771 -229 -1042 -505 -145
-148 -241 -283 -330 -466 -84 -172 -126 -309 -166 -535 -3 -19 -8 -143 -11
-275 -3 -132 -7 -242 -9 -244 -2 -2 -145 -5 -316 -5 -330 -2 -359 -5 -423 -50
-48 -33 -76 -67 -104 -126 l-25 -55 -1 -1805 c0 -1699 1 -1808 18 -1851 32
-84 96 -149 177 -179 29 -11 470 -14 2417 -15 2346 -2 2383 -1 2442 18 74 24
134 79 170 157 l25 55 0 1810 0 1810 -26 56 c-35 76 -95 132 -168 156 -54 17
-89 19 -370 19 l-310 -1 -1 200 c-2 252 -5 289 -30 425 -46 240 -173 526 -324
725 -124 165 -340 356 -509 452 -203 117 -435 196 -666 228 -44 7 -347 15
-352 10z m339 -601 c43 -8 87 -17 98 -19 66 -14 221 -81 296 -128 94 -58 128
-85 211 -165 98 -95 191 -224 244 -340 42 -91 81 -215 89 -279 4 -26 9 -57 12
-68 3 -11 7 -113 8 -227 3 -204 3 -206 -19 -210 -11 -1 -536 -3 -1166 -2
l-1145 0 1 190 c0 213 6 280 34 388 71 277 240 517 481 683 140 97 337 168
519 189 30 4 56 7 58 9 9 8 212 -7 279 -21z m-59 -2625 c336 -86 521 -452 393
-777 -40 -102 -120 -203 -208 -264 l-43 -29 0 -329 0 -330 -290 0 -290 0 0
330 0 329 -43 30 c-120 82 -217 235 -242 381 -8 45 -8 168 0 200 3 14 7 30 9
35 41 171 178 331 342 400 109 46 251 55 372 24z"/>
</g>
</svg>
