<svg width="21" height="18" viewBox="0 0 21 18" fill="none" xmlns="http://www.w3.org/2000/svg">
<path d="M10.5 12H8.5C6.8596 11.9994 5.25023 12.4471 3.84588 13.2949C2.44152 14.1427 1.2956 15.3582 0.532001 16.81C0.510538 16.5405 0.499863 16.2703 0.500001 16C0.500001 10.477 4.977 6 10.5 6V0.5L21 9L10.5 17.5V12ZM8.5 10H12.5V13.308L17.821 9L12.5 4.692V8H10.5C9.35025 7.99871 8.21379 8.24582 7.16839 8.72442C6.12299 9.20302 5.19332 9.90182 4.443 10.773C5.73432 10.2612 7.11096 9.99892 8.5 10Z" fill="white"/>
</svg>
