<svg width="25" height="24" viewBox="0 0 25 24" fill="none" xmlns="http://www.w3.org/2000/svg">
<g clip-path="url(#clip0_697_119)">
<path d="M15.1 7.9999H21.5C22.0304 7.9999 22.5391 8.21062 22.9142 8.58569C23.2893 8.96076 23.5 9.46947 23.5 9.9999V12.1039C23.5003 12.3653 23.4493 12.6241 23.35 12.8659L20.255 20.3809C20.1795 20.5641 20.0513 20.7208 19.8866 20.831C19.7219 20.9412 19.5282 21 19.33 20.9999H2.5C2.23478 20.9999 1.98043 20.8945 1.79289 20.707C1.60536 20.5195 1.5 20.2651 1.5 19.9999V9.9999C1.5 9.73469 1.60536 9.48033 1.79289 9.2928C1.98043 9.10526 2.23478 8.9999 2.5 8.9999H5.982C6.1421 8.99994 6.29986 8.96155 6.44203 8.88794C6.5842 8.81433 6.70662 8.70766 6.799 8.5769L12.252 0.849904C12.3209 0.752217 12.4226 0.682464 12.5385 0.653294C12.6545 0.624124 12.777 0.637467 12.884 0.690904L14.698 1.5979C15.2085 1.85307 15.6163 2.27522 15.8537 2.79422C16.0911 3.31322 16.1438 3.89783 16.003 4.4509L15.1 7.9999ZM7.5 10.5879V18.9999H18.66L21.5 12.1039V9.9999H15.1C14.7954 9.99986 14.4948 9.93024 14.2212 9.79636C13.9476 9.66248 13.7082 9.46787 13.5213 9.22739C13.3343 8.98691 13.2048 8.7069 13.1425 8.40873C13.0803 8.11056 13.0869 7.80211 13.162 7.5069L14.065 3.9589C14.0933 3.84823 14.0828 3.73122 14.0353 3.62733C13.9878 3.52345 13.9062 3.43895 13.804 3.3879L13.143 3.0579L8.433 9.7299C8.183 10.0839 7.863 10.3739 7.5 10.5879ZM5.5 10.9999H3.5V18.9999H5.5V10.9999Z" fill="white"/>
</g>
<defs>
<clipPath id="clip0_697_119">
<rect width="24" height="24" fill="white" transform="translate(0.5)"/>
</clipPath>
</defs>
</svg>
